REM DIRINDEX 1\8,1\2\11,1\3\12,1\3\14,1\5\15,1\5\16,1\6\17,1\6\18,1\4\19,1\4\20,1\4\21,1\4\22,1\7\23,1\7\24,1\7\25,1\2\9\26,1\2\9\27,1\2\10\28,1\2\10\29,1\2\10\30,1\2\10\31,1\2\10\32,1\3\13\33,1\3\13\34,1\3\13\35
REM DIRNAME cjc123,folder01,folder02,folder03,folder04,folder05,folder06,folder07,folder08,folder09,folder10,folder11,folder12,folder13,folder14,folder15,folder16,folder17,folder18,folder19,folder20,folder21,folder22,folder23,folder24,folder25,folder26,folder27,folder28,folder29,folder30,folder31,folder32,folder33,folder34
TITLE ""
FILE "111 111_UNIT6_SET2.mp3" MP3
  TRACK 01 AUDIO
    TITLE "14:cjc123_2089"
    INDEX 01 00:00:00
  TRACK 02 AUDIO
    TITLE "0:"
    INDEX 01 00:02:49
  TRACK 03 AUDIO
    TITLE "33:cjc123_2090"
    INDEX 01 00:03:29
  TRACK 04 AUDIO
    TITLE "0:"
    INDEX 01 00:04:42
  TRACK 05 AUDIO
    TITLE "34:cjc123_2091"
    INDEX 01 00:04:70
  TRACK 06 AUDIO
    TITLE "0:"
    INDEX 01 00:06:08
  TRACK 07 AUDIO
    TITLE "35:cjc123_2092"
    INDEX 01 00:06:53
  TRACK 08 AUDIO
    TITLE "0:"
    INDEX 01 00:12:56
  TRACK 09 AUDIO
    TITLE "33:cjc123_2093"
    INDEX 01 00:13:32
  TRACK 10 AUDIO
    TITLE "0:"
    INDEX 01 00:14:35
  TRACK 11 AUDIO
    TITLE "34:cjc123_2094"
    INDEX 01 00:14:72
  TRACK 12 AUDIO
    TITLE "0:"
    INDEX 01 00:15:66
  TRACK 13 AUDIO
    TITLE "35:cjc123_2095"
    INDEX 01 00:16:48
  TRACK 14 AUDIO
    TITLE "0:"
    INDEX 01 00:20:43
  TRACK 15 AUDIO
    TITLE "33:cjc123_2096"
    INDEX 01 00:21:29
  TRACK 16 AUDIO
    TITLE "0:"
    INDEX 01 00:22:36
  TRACK 17 AUDIO
    TITLE "34:cjc123_2097"
    INDEX 01 00:22:58
  TRACK 18 AUDIO
    TITLE "0:"
    INDEX 01 00:23:55
  TRACK 19 AUDIO
    TITLE "35:cjc123_2098"
    INDEX 01 00:24:27
  TRACK 20 AUDIO
    TITLE "0:"
    INDEX 01 00:29:40
  TRACK 21 AUDIO
    TITLE "33:cjc123_2099"
    INDEX 01 00:30:16
  TRACK 22 AUDIO
    TITLE "0:"
    INDEX 01 00:31:37
  TRACK 23 AUDIO
    TITLE "34:cjc123_2100"
    INDEX 01 00:31:73
  TRACK 24 AUDIO
    TITLE "0:"
    INDEX 01 00:33:21
  TRACK 25 AUDIO
    TITLE "35:cjc123_2101"
    INDEX 01 00:33:71
  TRACK 26 AUDIO
    TITLE "0:"
    INDEX 01 00:37:59
  TRACK 27 AUDIO
    TITLE "33:cjc123_2102"
    INDEX 01 00:38:30
  TRACK 28 AUDIO
    TITLE "0:"
    INDEX 01 00:39:27
  TRACK 29 AUDIO
    TITLE "34:cjc123_2103"
    INDEX 01 00:39:49
  TRACK 30 AUDIO
    TITLE "0:"
    INDEX 01 00:40:42
  TRACK 31 AUDIO
    TITLE "35:cjc123_2104"
    INDEX 01 00:41:20
  TRACK 32 AUDIO
    TITLE "0:"
    INDEX 01 00:46:47
  TRACK 33 AUDIO
    TITLE "33:cjc123_2105"
    INDEX 01 00:47:21
  TRACK 34 AUDIO
    TITLE "0:"
    INDEX 01 00:48:26
  TRACK 35 AUDIO
    TITLE "34:cjc123_2106"
    INDEX 01 00:48:53
  TRACK 36 AUDIO
    TITLE "0:"
    INDEX 01 00:49:70
  TRACK 37 AUDIO
    TITLE "35:cjc123_2107"
    INDEX 01 00:50:42
  TRACK 38 AUDIO
    TITLE "0:"
    INDEX 01 00:55:14
  TRACK 39 AUDIO
    TITLE "33:cjc123_2108"
    INDEX 01 00:55:69
  TRACK 40 AUDIO
    TITLE "0:"
    INDEX 01 00:57:03
  TRACK 41 AUDIO
    TITLE "34:cjc123_2109"
    INDEX 01 00:57:25
  TRACK 42 AUDIO
    TITLE "0:"
    INDEX 01 00:58:26
  TRACK 43 AUDIO
    TITLE "35:cjc123_2110"
    INDEX 01 00:59:00
  TRACK 44 AUDIO
    TITLE "0:"
    INDEX 01 01:04:56
  TRACK 45 AUDIO
    TITLE "33:cjc123_2111"
    INDEX 01 01:05:42
  TRACK 46 AUDIO
    TITLE "0:"
    INDEX 01 01:06:59
  TRACK 47 AUDIO
    TITLE "34:cjc123_2112"
    INDEX 01 01:07:27
  TRACK 48 AUDIO
    TITLE "0:"
    INDEX 01 01:08:36
  TRACK 49 AUDIO
    TITLE "35:cjc123_2113"
    INDEX 01 01:09:12
  TRACK 50 AUDIO
    TITLE "0:"
    INDEX 01 01:12:73
  TRACK 51 AUDIO
    TITLE "33:cjc123_2114"
    INDEX 01 01:13:47
  TRACK 52 AUDIO
    TITLE "0:"
    INDEX 01 01:14:57
  TRACK 53 AUDIO
    TITLE "34:cjc123_2115"
    INDEX 01 01:14:74
  TRACK 54 AUDIO
    TITLE "0:"
    INDEX 01 01:16:05
  TRACK 55 AUDIO
    TITLE "35:cjc123_2116"
    INDEX 01 01:16:56
  TRACK 56 AUDIO
    TITLE "0:"
    INDEX 01 01:21:47
  TRACK 57 AUDIO
    TITLE "33:cjc123_2117"
    INDEX 01 01:22:25
  TRACK 58 AUDIO
    TITLE "0:"
    INDEX 01 01:23:42
  TRACK 59 AUDIO
    TITLE "34:cjc123_2118"
    INDEX 01 01:23:73
  TRACK 60 AUDIO
    TITLE "0:"
    INDEX 01 01:25:11
  TRACK 61 AUDIO
    TITLE "35:cjc123_2119"
    INDEX 01 01:25:60
  TRACK 62 AUDIO
    TITLE "0:"
    INDEX 01 01:30:60
  TRACK 63 AUDIO
    TITLE "33:cjc123_2120"
    INDEX 01 01:31:45
  TRACK 64 AUDIO
    TITLE "0:"
    INDEX 01 01:32:64
  TRACK 65 AUDIO
    TITLE "34:cjc123_2121"
    INDEX 01 01:33:17
  TRACK 66 AUDIO
    TITLE "0:"
    INDEX 01 01:34:26
  TRACK 67 AUDIO
    TITLE "35:cjc123_2122"
    INDEX 01 01:35:02
  TRACK 68 AUDIO
    TITLE "0:"
    INDEX 01 01:38:53
  TRACK 69 AUDIO
    TITLE "33:cjc123_2123"
    INDEX 01 01:39:41
  TRACK 70 AUDIO
    TITLE "0:"
    INDEX 01 01:40:44
  TRACK 71 AUDIO
    TITLE "34:cjc123_2124"
    INDEX 01 01:40:58
  TRACK 72 AUDIO
    TITLE "0:"
    INDEX 01 01:41:69
  TRACK 73 AUDIO
    TITLE "35:cjc123_2125"
    INDEX 01 01:42:43
  TRACK 74 AUDIO
    TITLE "0:"
    INDEX 01 01:47:23
  TRACK 75 AUDIO
    TITLE "33:cjc123_2126"
    INDEX 01 01:47:74
  TRACK 76 AUDIO
    TITLE "0:"
    INDEX 01 01:49:12
  TRACK 77 AUDIO
    TITLE "34:cjc123_2127"
    INDEX 01 01:49:22
  TRACK 78 AUDIO
    TITLE "0:"
    INDEX 01 01:50:23
  TRACK 79 AUDIO
    TITLE "35:cjc123_2128"
    INDEX 01 01:50:72
  TRACK 80 AUDIO
    TITLE "0:"
    INDEX 01 01:54:68
  TRACK 81 AUDIO
    TITLE "33:cjc123_2129"
    INDEX 01 01:55:58
  TRACK 82 AUDIO
    TITLE "0:"
    INDEX 01 01:56:53
  TRACK 83 AUDIO
    TITLE "34:cjc123_2130"
    INDEX 01 01:57:06
  TRACK 84 AUDIO
    TITLE "0:"
    INDEX 01 01:58:15
  TRACK 85 AUDIO
    TITLE "35:cjc123_2131"
    INDEX 01 01:58:60
  TRACK 86 AUDIO
    TITLE "0:"
    INDEX 01 02:02:48
  TRACK 87 AUDIO
    TITLE "33:cjc123_2132"
    INDEX 01 02:03:38
  TRACK 88 AUDIO
    TITLE "0:"
    INDEX 01 02:04:57
  TRACK 89 AUDIO
    TITLE "34:cjc123_2133"
    INDEX 01 02:05:03
  TRACK 90 AUDIO
    TITLE "0:"
    INDEX 01 02:06:30
  TRACK 91 AUDIO
    TITLE "35:cjc123_2134"
    INDEX 01 02:07:04
  TRACK 92 AUDIO
    TITLE "0:"
    INDEX 01 02:11:39
